# xmcd
#
# Track frame offsets: 
#        150
#        12176
#        23854
#        33969
#        46153
#        57467
#        67394
#        77462
#        90622
#        106994
#        121395
#        132250
#        144053
#        159529
#        171608
#        181994
#        197277
#        209720
#        223005
#        238312
#        254000
#        268285
#        283282
#
# Disc length: 3964 seconds
#
# Revision: 0
# Processed by: cddbd v1.5.2PL0 Copyright (c) Steve Scherf et al.
# Submitted via: ExactAudioCopy v1.0b3
#
DISCID=600f7a17
DTITLE=Various Artist - 日テレ60 and YTV55 アニメソング アルティメットBOXI -昭和篇- DISC2
DYEAR=2013
DGENRE=Anime
TTITLE0=白い風にのって
TTITLE1=冒険コロボックル
TTITLE2=侍ジャイアンツ
TTITLE3=サムライ番場蛮
TTITLE4=柔道讃歌
TTITLE5=母子シャチの歌
TTITLE6=宇宙戦艦ヤマト
TTITLE7=ガンバのうた
TTITLE8=冒険者たちのバラード
TTITLE9=タリラリランのコニャニャチワ
TTITLE10=元祖天才バカボンの春
TTITLE11=行け行け飛雄馬
TTITLE12=よみがえれ飛雄馬
TTITLE13=さあ歩きはじめよう
TTITLE14=はらぺこマーチ
TTITLE15=ルパン三世のテーマ’78
TTITLE16=ルパン三世 愛のテーマ
TTITLE17=宝島
TTITLE18=小さな船乗り
TTITLE19=青春にかけろ!
TTITLE20=明日に向って
TTITLE21=薔薇は美しく散る
TTITLE22=愛の光と影
EXTD=
EXTT0=
EXTT1=
EXTT2=
EXTT3=
EXTT4=
EXTT5=
EXTT6=
EXTT7=
EXTT8=
EXTT9=
EXTT10=
EXTT11=
EXTT12=
EXTT13=
EXTT14=
EXTT15=
EXTT16=
EXTT17=
EXTT18=
EXTT19=
EXTT20=
EXTT21=
EXTT22=
PLAYORDER=
